# xmcd CD database file
#
# Track frame offsets:
#	150
#	16658
#	34256
#	46175
#	64573
#	79060
#	94409
#	112970
#	130092
#	148913
#	161767
#	180512
#
# Disc length: 2652 seconds
#
# Revision: 0
# Processed by: cddbd v1.5PL3 Copyright (c) Steve Scherf et al.
# Submitted via: ACXtractor (MTCDDB.DLL V2003.12.21)
#
DISCID=970a5a0c
DTITLE=VARIOS - LOCURA POR EL VALLENATO
DYEAR=2002
DGENRE=Latin
TTITLE0=Title 01Alfredo Gutierrez - Con toda el alma - vallernato
TTITLE1=Title 02Rafael Escalona - El testamento
TTITLE2=Title 03Gildardo Montoya - Plegaria Vallenata 
TTITLE3=Title 04Alejandro Duran - Compae Nacho 
TTITLE4=Title 05Rafael Escalona - La patilladera
TTITLE5=Title 06Rafael Escalona - La casa en el aire 
TTITLE6=Title 07pend. -Tus ojos
TTITLE7=Title 08Rafael Escalona - El mejoral
TTITLE8=Title 09Rafael Escalona - El jerre jerre 
TTITLE9=Title 10J.Barros - Arbolito de Navidad
TTITLE10=Title 11Rafael Escalona - el medallon
TTITLE11=Title 12Rafael escalona - La custodia de Badillo
EXTD=ID3G:  86 YEAR: 2002
EXTT0=
EXTT1=
EXTT2=
EXTT3=
EXTT4=
EXTT5=
EXTT6=
EXTT7=
EXTT8=
EXTT9=
EXTT10=
EXTT11=
PLAYORDER=
